<svg clip-rule="evenodd" fill-rule="evenodd" height="210mm" image-rendering="optimizeQuality" shape-rendering="geometricPrecision" text-rendering="geometricPrecision" viewBox="2901.17 7175.22 23896.6 6663.83" width="297mm" xmlns="http://www.w3.org/2000/svg"><path d="m13452.64 12522.91 1420.13-1420.13v1420.12l1425.96-1425.94v1425.95h565.67v-2845.67l-1432.87 1432.86v-1432.86l-2845.67 2845.67zm10747.45-2845.67h704.89l-513.16 513.16h-143.28c-392.8 0-714.2 321.4-714.2 714.2v1618.31h-565.67v-1614.25c0-677.29 554.13-1231.42 1231.42-1231.42zm1121.85 1102.06h899.07c-59.67-333.61-353.03-588.9-703.11-588.9h-726.55l513.16-513.16h261.84c677.29 0 1231.42 554.14 1231.42 1231.42v1614.25h-1475.83c-479.49 0-871.8-392.31-871.8-871.8 0-479.5 392.3-871.81 871.8-871.81zm910.16 513.16h-883.9c-182.82 0-332.39 149.57-332.39 332.39s149.57 332.39 332.39 332.39h883.9zm-4185.22-1615.22h565.67v2845.67h-1053.66c-628.04 0-1141.91-513.85-1141.91-1141.91v-1703.76h565.67v1703.76c0 316.92 259.3 576.24 576.24 576.24h487.99zm-3409.94-64.58c821.47 0 1487.41 665.94 1487.41 1487.41s-665.94 1487.41-1487.41 1487.41-1487.41-665.94-1487.41-1487.41 665.94-1487.41 1487.41-1487.41zm0 565.66c509.07 0 921.75 412.68 921.75 921.75s-412.68 921.75-921.75 921.75-921.75-412.68-921.75-921.75 412.68-921.75 921.75-921.75z"/><path d="m7826.04 10167.94v-1989.07l-4924.87 3671.11v1989.07z" fill="#f5af19"/><path d="m7826.04 12663.19v-2495.25l-1571.2 1171.2v2495.26z" fill="#de961e"/><path d="m7826.04 10167.94 4014.78-2992.72v2495.26l-4014.78 2992.71z" fill="#487dc9"/><path d="m11840.82 9670.48-1757 1309.7v2855.33l1757.01-1309.71z" fill="#3c50a7"/></svg>